<svg id="Layer_1" data-name="Layer 1" xmlns="http://www.w3.org/2000/svg" viewBox="0 0 227 97"><defs><style>.cls-1{fill:#6d6e70;}.cls-2{fill:#9e2214;}</style></defs><title>CI-Logo</title><path class="cls-1" d="M11.37,91.1h1V96h3v.88h-4Z"/><path class="cls-1" d="M23.12,94A2.81,2.81,0,1,1,20.33,91,2.82,2.82,0,0,1,23.12,94Zm-4.58,0c0,1.12.52,2.22,1.78,2.22S22.1,95.14,22.1,94s-.52-2.22-1.78-2.22S18.55,92.9,18.55,94Z"/><path class="cls-1" d="M29.77,93a1.4,1.4,0,0,0-1.46-1.16c-1.25,0-1.78,1.1-1.78,2.22s.52,2.22,1.78,2.22a1.5,1.5,0,0,0,1.49-1.53h1a2.39,2.39,0,0,1-2.49,2.36,3.06,3.06,0,0,1,0-6.1,2.28,2.28,0,0,1,2.48,2Z"/><path class="cls-1" d="M35.06,91.1h1.09l2.25,5.83h-1.1l-.55-1.54H34.42l-.55,1.54H32.82Zm-.36,3.51h1.78l-.88-2.51h0Z"/><path class="cls-1" d="M40.72,91.1h1V96h3v.88h-4Z"/><path class="cls-1" d="M47.13,95.83h1.14v1.1H47.13Z"/><path class="cls-1" d="M55.21,91.1h1V94.5c0,.78,0,1.69,1.38,1.69S59,95.28,59,94.5V91.1h1v3.73a2.4,2.4,0,0,1-4.8,0Z"/><path class="cls-1" d="M63.62,95c0,.9.66,1.25,1.48,1.25s1.24-.44,1.24-.88a.69.69,0,0,0-.48-.72c-.41-.15-.94-.26-1.74-.48a1.48,1.48,0,0,1-1.29-1.48C62.82,91.51,63.9,91,65,91c1.22,0,2.24.65,2.24,1.86h-1c0-.75-.56-1-1.26-1-.47,0-1.07.17-1.07.76,0,.41.28.64.7.75l1.69.45a1.54,1.54,0,0,1,1.14,1.49c0,1.31-1.16,1.83-2.32,1.83-1.33,0-2.41-.64-2.44-2.08Z"/><path class="cls-1" d="M70,91.1h4.21V92H71v1.53H74v.83H71V96h3.24v.88H70Z"/><path class="cls-1" d="M76.94,91.1h4V92H78v1.53h2.64v.83H78v2.59h-1Z"/><path class="cls-1" d="M83.5,91.1h1V94.5c0,.78,0,1.69,1.38,1.69s1.37-.91,1.37-1.69V91.1h1v3.73a2.4,2.4,0,0,1-4.8,0Z"/><path class="cls-1" d="M91.24,91.1h1V96h3v.88h-4Z"/><path class="cls-1" d="M97.64,95.83h1.14v1.1H97.64Z"/><path class="cls-1" d="M105.79,91.1H110V92h-3.18v1.53h2.95v.83h-2.95V96h3.24v.88h-4.26Z"/><path class="cls-1" d="M112,91.1h1.06l1.47,4.61h0l1.5-4.61h1l-2,5.83H114Z"/><path class="cls-1" d="M119.48,91.1h4.21V92H120.5v1.53h2.95v.83H120.5V96h3.24v.88h-4.26Z"/><path class="cls-1" d="M126.4,91.1h2.79c1.28,0,1.93.59,1.93,1.57a1.42,1.42,0,0,1-1,1.47v0c.35,0,.87.31.87,1.23a2.64,2.64,0,0,0,.32,1.53h-1.1a1.62,1.62,0,0,1-.16-.86c0-1.07-.22-1.54-1.16-1.54h-1.51v2.4h-1Zm1,2.65h1.68c.65,0,1-.32,1-.93s-.48-.89-1-.89h-1.66Z"/><path class="cls-1" d="M135.15,94.65,133,91.1h1.19l1.55,2.61,1.52-2.61h1.15l-2.19,3.54v2.28h-1Z"/><path class="cls-1" d="M146,94a2.81,2.81,0,1,1-2.8-3.05A2.82,2.82,0,0,1,146,94Zm-4.58,0c0,1.12.52,2.22,1.78,2.22S145,95.14,145,94s-.52-2.22-1.78-2.22S141.41,92.9,141.41,94Z"/><path class="cls-1" d="M148.64,91.1h1.08l2.67,4.29h0V91.1h1v5.83H152.3l-2.66-4.28h0v4.28h-1Z"/><path class="cls-1" d="M156.36,91.1h4.21V92h-3.18v1.53h2.95v.83h-2.95V96h3.24v.88h-4.26Z"/><path class="cls-1" d="M172.42,96.93h-.66l-.16-.69a2.11,2.11,0,0,1-1.76.82,3.06,3.06,0,0,1,0-6.1,2.3,2.3,0,0,1,2.5,2h-1a1.39,1.39,0,0,0-1.51-1.16c-1.25,0-1.78,1.1-1.78,2.22s.52,2.22,1.78,2.22a1.48,1.48,0,0,0,1.64-1.6h-1.56v-.78h2.49Z"/><path class="cls-1" d="M175.3,91.1h4.21V92h-3.18v1.53h2.95v.83h-2.95V96h3.24v.88H175.3Z"/><path class="cls-1" d="M181.67,91.1h4.73V92h-1.86v4.94h-1V92h-1.85Z"/><path class="cls-1" d="M189.51,95c0,.9.66,1.25,1.48,1.25s1.24-.44,1.24-.88a.69.69,0,0,0-.48-.72c-.41-.15-.94-.26-1.74-.48a1.48,1.48,0,0,1-1.29-1.48c0-1.17,1.08-1.71,2.14-1.71,1.22,0,2.24.65,2.24,1.86h-1c0-.75-.56-1-1.26-1-.48,0-1.07.17-1.07.76,0,.41.28.64.7.75l1.69.45a1.54,1.54,0,0,1,1.14,1.49c0,1.31-1.16,1.83-2.33,1.83-1.33,0-2.41-.64-2.44-2.08Z"/><path class="cls-1" d="M200,91.1h1v5.83h-1Z"/><path class="cls-1" d="M203.44,91.1h4.73V92h-1.86v4.94h-1V92h-1.85Z"/><path class="cls-1" d="M209.65,95.83h1.14v1.1h-1.14Z"/><path class="cls-1" d="M213.91,91.38a4.22,4.22,0,0,1,.55,0,1,1,0,0,1,.59.12.38.38,0,0,1,.17.33.43.43,0,0,1-.32.39h0a.41.41,0,0,1,.24.29,4.16,4.16,0,0,0,.15.44h-.42a1.88,1.88,0,0,1-.13-.37c0-.2-.13-.25-.29-.25h-.12v.62h-.41Zm.41.68h.16c.2,0,.33-.09.33-.23s-.11-.22-.3-.22h-.19Z"/><path class="cls-1" d="M214.53,90.55a1.57,1.57,0,1,1-1.6,1.57,1.59,1.59,0,0,1,1.6-1.57m0,.34a1.26,1.26,0,0,0-.89.36,1.21,1.21,0,0,0,0,1.74,1.27,1.27,0,0,0,1.78,0,1.21,1.21,0,0,0,0-1.74,1.26,1.26,0,0,0-.89-.36Z"/><rect class="cls-2" x="93.5" y="1.71" width="133.5" height="6.78"/><rect class="cls-2" y="74.44" width="133.5" height="6.78"/><path class="cls-2" d="M0,18.11H10.31V65H0Z"/><path class="cls-2" d="M15.85,18.11H30.36l11,32.23h.13L51.82,18.11H66.33V65H56.68V31.77h-.13L45.06,65H37.12L25.63,32.1H25.5V65H15.85Z"/><path class="cls-2" d="M72,18.11H93.15c11.68,0,16.21,7.42,16.21,15s-4.53,15-16.21,15H82.32V65H72ZM82.32,40.17h8c4.79,0,9.06-1.05,9.06-7s-4.27-7-9.06-7h-8Z"/><path class="cls-2" d="M121.09,18.11h10.57L149.18,65h-10.7l-3.55-10.44H117.41L113.74,65H103.3Zm-1,28.75h12.14l-5.91-17.2h-.13Z"/><path class="cls-2" d="M178.9,33.87c-.66-4.66-5.12-8.21-10.24-8.21-9.26,0-12.74,7.88-12.74,16.08,0,7.81,3.48,15.69,12.74,15.69,6.3,0,9.85-4.33,10.63-10.5h10c-1.05,11.68-9.12,19.17-20.61,19.17-14.51,0-23-10.83-23-24.35,0-13.92,8.53-24.75,23-24.75,10.31,0,19,6,20.22,16.87Z"/><path class="cls-2" d="M202.65,26.78h-14V18.11H227v8.67H213V65H202.65Z"/><path class="cls-2" d="M7,3.46A2.12,2.12,0,0,0,4.82,1.74c-1.94,0-2.66,1.65-2.66,3.36s.73,3.28,2.66,3.28A2.21,2.21,0,0,0,7,6.19H9.13a4.14,4.14,0,0,1-4.31,4C1.78,10.2,0,7.93,0,5.11S1.78-.07,4.82-.07A4,4,0,0,1,9,3.46Z"/><path class="cls-2" d="M14.61-.07c3,0,4.82,2.26,4.82,5.17s-1.78,5.09-4.82,5.09S9.79,7.93,9.79,5.11,11.57-.07,14.61-.07Zm0,8.46c1.94,0,2.66-1.65,2.66-3.28s-.73-3.36-2.66-3.36-2.66,1.65-2.66,3.36S12.67,8.39,14.61,8.39Z"/><path class="cls-2" d="M20.58.16h3L25.91,6.9h0L28.11.16h3V10h-2V3h0L26.69,10H25l-2.4-6.88h0V10h-2Z"/><path class="cls-2" d="M32.76.16h3L38.09,6.9h0L40.28.16h3V10h-2V3h0L38.87,10H37.21l-2.4-6.88h0V10h-2Z"/><path class="cls-2" d="M53.25,6.26c0,2.65-1.56,3.94-4.19,3.94s-4.17-1.28-4.17-3.94V.16H47V6.26c0,1.07.27,2.13,2,2.13,1.54,0,2-.67,2-2.13V.16h2.15Z"/><path class="cls-2" d="M54.82.16H57l4.09,6.58h0V.16h2V10H60.94L56.87,3.4h0V10h-2Z"/><path class="cls-2" d="M64.71.16h2.16V10H64.71Z"/><path class="cls-2" d="M70.51,2H67.57V.16h8V2H72.66v8H70.51Z"/><path class="cls-2" d="M79.41,6.15,75.8.16h2.43L80.52,4,82.8.16h2.4l-3.64,6V10H79.41Z"/><path class="cls-2" d="M144.15,73.12h2.14l4.09,6.58h0V73.12h2v9.8h-2.16l-4.08-6.56h0v6.56h-2Z"/><path class="cls-2" d="M154,73.12h7.33v1.81H156.2V77h4.75v1.68H156.2v2.4h5.29v1.81H154Z"/><path class="cls-2" d="M172.11,82.92H170l-1.66-6.67h0l-1.63,6.67h-2.18l-2.59-9.8H164l1.55,6.67h0l1.7-6.67h2L171,79.88h0l1.61-6.75h2.11Z"/><path class="cls-2" d="M176.77,79.67c0,1.3,1,1.81,2.17,1.81.75,0,1.91-.22,1.91-1.22s-1.47-1.24-2.91-1.62S175,77.69,175,75.85c0-2,1.89-3,3.67-3,2,0,3.92.89,3.92,3.16h-2.09c-.07-1.18-.91-1.48-1.94-1.48-.69,0-1.48.29-1.48,1.11s.47.85,2.92,1.48c.71.18,2.91.63,2.91,2.86,0,1.8-1.41,3.14-4.08,3.14-2.17,0-4.2-1.07-4.17-3.49Z"/><path class="cls-2" d="M184,73.12h4.42a3.15,3.15,0,1,1,0,6.29h-2.27v3.51H184Zm2.16,4.61h1.68c1,0,1.89-.22,1.89-1.47s-.89-1.47-1.89-1.47h-1.68Z"/><path class="cls-2" d="M194.76,73.12H197l3.67,9.8H198.4l-.74-2.18H194l-.77,2.18H191Zm-.21,6h2.54l-1.24-3.6h0Z"/><path class="cls-2" d="M201.23,73.12h4.42a3.15,3.15,0,1,1,0,6.29h-2.27v3.51h-2.16Zm2.16,4.61h1.68c1,0,1.89-.22,1.89-1.47s-.89-1.47-1.89-1.47h-1.68Z"/><path class="cls-2" d="M209.88,73.12h7.33v1.81H212V77h4.75v1.68H212v2.4h5.29v1.81h-7.44Z"/><path class="cls-2" d="M218.56,73.12h5.29a2.69,2.69,0,0,1,2.87,2.7,2.41,2.41,0,0,1-1.55,2.46v0c1.06.27,1.36,1.3,1.43,2.29a5.36,5.36,0,0,0,.41,2.32h-2.16a10.87,10.87,0,0,1-.34-2.35c-.15-1-.55-1.48-1.63-1.48h-2.16v3.83h-2.16Zm2.16,4.43h2.36c1,0,1.48-.41,1.48-1.4s-.52-1.36-1.48-1.36h-2.36Z"/></svg>